<svg width="388" height="78" viewBox="0 0 388 78" fill="none" xmlns="http://www.w3.org/2000/svg">
<path d="M17.8916 40.6865C17.9723 40.7471 18.2044 40.7773 18.5879 40.7773C18.9714 40.7773 19.264 40.626 19.4658 40.3232C19.6676 40.0205 19.7686 39.526 19.7686 38.8398V36.5391C19.7686 35.8125 19.6777 35.2979 19.4961 34.9951C19.3346 34.6722 19.0521 34.5107 18.6484 34.5107C18.265 34.5107 18.0026 34.5511 17.8613 34.6318C17.8815 34.7327 17.8916 34.9043 17.8916 35.1465V40.6865ZM18.6484 54.3701V59.002C17.7604 59.7487 16.5091 60.3643 14.8945 60.8486C13.2799 61.3128 11.5947 61.5449 9.83887 61.5449C7.33626 61.5449 5.28776 61.0605 3.69336 60.0918C1.87695 58.9818 0.96875 57.3773 0.96875 55.2783V26.5186C0.96875 25.8727 1.40267 25.2269 2.27051 24.5811C3.15853 23.9352 4.37956 23.3499 5.93359 22.8252C9.26367 21.695 13.068 21.1299 17.3467 21.1299C23.2601 21.1299 27.9727 22.6032 31.4844 25.5498C34.9961 28.4964 36.752 32.4622 36.752 37.4473C36.752 42.4121 35.1676 46.277 31.999 49.042C28.9515 51.6657 24.7233 52.9775 19.3145 52.9775C18.0833 52.9775 16.7614 52.8363 15.3486 52.5537C13.9561 52.251 13.0176 51.9886 12.5332 51.7666C12.3717 51.9281 12.291 52.1501 12.291 52.4326C12.291 53.4619 14.4102 54.1077 18.6484 54.3701ZM67.2979 46.0146C67.2979 47.4678 67.4593 48.6383 67.7822 49.5264C68.1051 50.4144 68.6702 51.1107 69.4775 51.6152C69.4977 51.7161 69.5078 51.9079 69.5078 52.1904V52.7354C69.5078 55.6012 68.64 57.8314 66.9043 59.4258C65.3704 60.8385 63.4733 61.5449 61.2129 61.5449C59.679 61.5449 58.2764 61.1816 57.0049 60.4551C55.7334 59.7285 54.8252 58.679 54.2803 57.3066C53.5941 57.3066 53.251 57.6396 53.251 58.3057C53.251 58.8708 53.6042 59.5065 54.3105 60.2129C52.9987 61.1009 51.0208 61.5449 48.377 61.5449C44.6432 61.5449 41.6562 60.5358 39.416 58.5176C37.196 56.4792 36.0859 53.6436 36.0859 50.0107C36.0859 46.3577 37.2666 43.5322 39.6279 41.5342C41.7874 39.738 44.5827 38.8398 48.0137 38.8398C49.1842 38.8398 50.3145 38.9206 51.4043 39.082C52.1309 39.2233 52.5244 39.304 52.585 39.3242C52.6455 39.1224 52.6758 38.9508 52.6758 38.8096C52.6758 38.2848 52.2318 37.9316 51.3438 37.75C50.4557 37.5684 49.2952 37.4775 47.8623 37.4775C44.8148 37.4775 42.2113 38.0931 40.0518 39.3242C39.0628 37.6491 38.5684 35.5299 38.5684 32.9668C38.5684 31.5137 38.75 30.4339 39.1133 29.7275C40.5664 29.0615 42.4131 28.4762 44.6533 27.9717C46.8936 27.4469 49.2549 27.1846 51.7373 27.1846C56.8636 27.1846 60.7386 28.3047 63.3623 30.5449C65.986 32.7852 67.2979 35.9639 67.2979 40.0811V46.0146ZM51.5859 47.498C50.7383 47.498 50.3145 47.8815 50.3145 48.6484C50.3145 49.375 50.8089 49.7383 51.7979 49.7383C52.484 49.7383 52.9886 49.5768 53.3115 49.2539C53.6344 48.9108 53.7959 48.3255 53.7959 47.498C53.7959 47.498 53.0592 47.498 51.5859 47.498ZM84.4326 44.1377C84.4326 45.3083 84.4831 46.0954 84.584 46.499C84.7051 47.1449 85.0381 47.4678 85.583 47.4678H85.8555C85.916 47.4678 86.0068 47.4476 86.1279 47.4072C86.0674 46.8623 86.0371 46.0752 86.0371 45.0459C86.0371 44.0166 86.0876 42.3314 86.1885 39.9902C86.2894 37.6491 86.3398 34.2383 86.3398 29.7578C88.3379 28.3854 90.6286 27.6992 93.2119 27.6992C95.2301 27.6992 96.8952 28.0928 98.207 28.8799C99.5391 29.667 100.457 30.7871 100.962 32.2402C100.962 32.9264 100.891 34.3291 100.75 36.4482C100.326 41.514 99.7106 45.3486 98.9033 47.9521C99.1253 48.0732 99.3574 48.1338 99.5996 48.1338C99.862 48.1338 100.064 48.0531 100.205 47.8916C100.79 47.2256 101.345 44.8239 101.87 40.6865C102.294 36.6501 102.556 33.5521 102.657 31.3926C102.677 30.6257 102.708 30.0404 102.748 29.6367C103.515 29.0514 104.534 28.5872 105.806 28.2441C107.097 27.8809 108.439 27.6992 109.832 27.6992C112.193 27.6992 114.121 28.3551 115.614 29.667C117.108 30.9587 117.854 32.6943 117.854 34.874C117.854 36.4886 117.532 38.6986 116.886 41.5039C116.24 44.3092 115.362 47.2962 114.252 50.4648C113.142 53.6133 112.244 55.8132 111.558 57.0645C110.589 58.8001 109.428 59.9808 108.076 60.6064C106.744 61.2321 104.675 61.5449 101.87 61.5449C101.022 61.5449 99.9225 61.4541 98.5703 61.2725C97.2181 61.0908 96.2897 60.8991 95.7852 60.6973C95.3613 60.0111 94.8568 59.002 94.2715 57.6699C93.7064 56.3379 93.3027 55.3086 93.0605 54.582C92.2936 54.7031 91.9102 55.0361 91.9102 55.5811C91.9102 55.7425 92.0413 56.1966 92.3037 56.9434C92.5661 57.6699 92.7578 58.1644 92.8789 58.4268C92.8184 58.5479 92.667 58.8708 92.4248 59.3955C92.1826 59.9001 91.9202 60.3441 91.6377 60.7275C90.0837 61.2725 87.8333 61.5449 84.8867 61.5449C81.9603 61.5449 79.4577 61.1312 77.3789 60.3037C75.7643 58.0837 74.3617 55.4297 73.1709 52.3418C72.0003 49.2539 71.0114 45.2982 70.2041 40.4746C68.8721 38.7389 68.2061 36.6501 68.2061 34.208C68.2061 31.766 68.8115 29.6468 70.0225 27.8506H77.3486C80.2145 27.8506 82.2126 28.5267 83.3428 29.8789C84.2106 30.9284 84.6445 32.6237 84.6445 34.9648L84.4326 44.1377ZM136.2 39.2939C136.2 38.5674 135.928 38.2041 135.383 38.2041C134.878 38.2041 134.626 38.5068 134.626 39.1123V42.2305C134.787 42.3717 135.03 42.4424 135.353 42.4424C135.675 42.4424 135.897 42.3213 136.019 42.0791C136.14 41.8369 136.2 41.3929 136.2 40.7471V39.2939ZM137.32 51.5547C136.029 51.5547 134.929 51.4639 134.021 51.2822C133.96 51.4639 133.93 51.6354 133.93 51.7969C133.93 52.2409 134.243 52.5436 134.868 52.7051C135.514 52.8464 136.331 52.917 137.32 52.917C140.469 52.917 143.153 52.4528 145.373 51.5244C147.553 52.0895 149.248 53.3206 150.459 55.2178C151.448 56.7718 151.942 58.5983 151.942 60.6973C151.942 64.431 150.358 67.3372 147.189 69.416C144.021 71.4948 139.934 72.5342 134.929 72.5342C129.944 72.5342 126.089 71.6462 123.364 69.8701C120.841 68.2555 119.58 66.1566 119.58 63.5732C119.58 62.5843 119.812 61.6357 120.276 60.7275C120.741 59.7992 121.275 59.1634 121.881 58.8203C122.89 59.668 124.373 60.3542 126.331 60.8789C128.309 61.4036 130.337 61.666 132.416 61.666C134.495 61.666 135.827 61.5853 136.412 61.4238C137.018 61.2624 137.32 60.9798 137.32 60.5762C137.32 60.3743 137.26 60.1725 137.139 59.9707C136.13 60.1927 134.868 60.3037 133.354 60.3037C129.459 60.3037 126.402 59.7487 124.182 58.6387C121.477 57.3066 120.125 55.2985 120.125 52.6143C120.125 51.5648 120.337 50.596 120.761 49.708C121.185 48.7998 121.81 48.1237 122.638 47.6797C121.528 46.9935 120.579 45.9541 119.792 44.5615C119.025 43.1689 118.642 41.4535 118.642 39.415C118.642 35.54 120.095 32.4824 123.001 30.2422C125.907 28.002 129.681 26.8818 134.323 26.8818C136.563 26.8818 138.723 27.2552 140.802 28.002V25.8828C141.993 25.4186 143.567 25.1865 145.524 25.1865C147.502 25.1865 149.006 25.5195 150.035 26.1855C151.286 26.9928 151.912 28.4157 151.912 30.4541C151.912 31.5843 151.791 32.4925 151.549 33.1787C151.327 33.8649 150.994 34.5814 150.55 35.3281C151.075 36.6602 151.337 38.3151 151.337 40.293C151.337 43.8652 150.065 46.6403 147.522 48.6182C145 50.5758 141.599 51.5547 137.32 51.5547ZM162.78 61.3936C160.379 61.3936 158.461 60.9596 157.028 60.0918C155.434 59.1836 154.637 57.8415 154.637 56.0654V40.4746C153.446 38.7995 152.851 36.7409 152.851 34.2988C152.851 31.8366 153.446 29.7074 154.637 27.9111H159.269C161.65 27.9111 163.355 28.6781 164.385 30.2119C163.88 30.777 163.436 31.4935 163.053 32.3613C162.669 33.2292 162.478 33.8548 162.478 34.2383C162.478 34.6016 162.568 34.874 162.75 35.0557C162.952 35.2373 163.234 35.3281 163.598 35.3281C164.304 32.5228 165.646 30.4642 167.624 29.1523C169.259 28.0423 171.277 27.4873 173.679 27.4873C176.666 27.4873 179.007 28.123 180.702 29.3945C181.308 31.0091 181.61 32.987 181.61 35.3281C181.61 37.6491 181.146 39.7581 180.218 41.6553C179.532 42.0186 178.583 42.3314 177.372 42.5938C176.161 42.8359 174.94 42.957 173.709 42.957C172.478 42.957 171.368 42.8763 170.379 42.7148C169.41 42.5332 168.704 42.3717 168.26 42.2305C168.098 42.3919 168.018 42.624 168.018 42.9268C168.018 43.2295 168.209 43.4616 168.593 43.623C168.996 43.7643 169.662 43.9258 170.591 44.1074V59.3047C168.391 60.6973 165.787 61.3936 162.78 61.3936ZM211.763 46.0146C211.763 47.4678 211.924 48.6383 212.247 49.5264C212.57 50.4144 213.135 51.1107 213.942 51.6152C213.963 51.7161 213.973 51.9079 213.973 52.1904V52.7354C213.973 55.6012 213.105 57.8314 211.369 59.4258C209.835 60.8385 207.938 61.5449 205.678 61.5449C204.144 61.5449 202.741 61.1816 201.47 60.4551C200.198 59.7285 199.29 58.679 198.745 57.3066C198.059 57.3066 197.716 57.6396 197.716 58.3057C197.716 58.8708 198.069 59.5065 198.775 60.2129C197.464 61.1009 195.486 61.5449 192.842 61.5449C189.108 61.5449 186.121 60.5358 183.881 58.5176C181.661 56.4792 180.551 53.6436 180.551 50.0107C180.551 46.3577 181.731 43.5322 184.093 41.5342C186.252 39.738 189.048 38.8398 192.479 38.8398C193.649 38.8398 194.779 38.9206 195.869 39.082C196.596 39.2233 196.989 39.304 197.05 39.3242C197.11 39.1224 197.141 38.9508 197.141 38.8096C197.141 38.2848 196.697 37.9316 195.809 37.75C194.921 37.5684 193.76 37.4775 192.327 37.4775C189.28 37.4775 186.676 38.0931 184.517 39.3242C183.528 37.6491 183.033 35.5299 183.033 32.9668C183.033 31.5137 183.215 30.4339 183.578 29.7275C185.031 29.0615 186.878 28.4762 189.118 27.9717C191.358 27.4469 193.72 27.1846 196.202 27.1846C201.328 27.1846 205.203 28.3047 207.827 30.5449C210.451 32.7852 211.763 35.9639 211.763 40.0811V46.0146ZM196.051 47.498C195.203 47.498 194.779 47.8815 194.779 48.6484C194.779 49.375 195.274 49.7383 196.263 49.7383C196.949 49.7383 197.453 49.5768 197.776 49.2539C198.099 48.9108 198.261 48.3255 198.261 47.498C198.261 47.498 197.524 47.498 196.051 47.498ZM264.257 46.0146C264.257 47.488 264.418 48.6888 264.741 49.6172C265.064 50.5456 265.629 51.262 266.437 51.7666C266.457 51.8675 266.467 52.0391 266.467 52.2812V52.7354C266.467 55.5003 265.66 57.6598 264.045 59.2139C262.43 60.7679 260.341 61.5449 257.778 61.5449C255.235 61.5449 253.187 60.8486 251.633 59.4561C249.796 57.8415 248.878 55.3691 248.878 52.0391V42.4727C248.878 41.1204 248.434 40.4443 247.546 40.4443C247.203 40.4443 246.93 40.5251 246.729 40.6865L247.273 45.1973V52.0391C247.273 54.7839 247.728 56.8626 248.636 58.2754C247.667 59.3047 246.456 60.112 245.003 60.6973C243.57 61.2624 242.107 61.5449 240.613 61.5449C238.191 61.5449 236.314 60.9596 234.982 59.7891C233.368 58.3763 232.561 56.1462 232.561 53.0986V42.4727C232.561 41.1204 232.117 40.4443 231.229 40.4443C230.885 40.4443 230.613 40.5251 230.411 40.6865L230.956 45.1973V53.2197C230.956 55.4801 231.259 57.2259 231.864 58.457C229.886 60.4954 227.111 61.5146 223.539 61.5146C221.42 61.5146 219.634 60.9798 218.181 59.9102C216.506 58.679 215.668 57.0241 215.668 54.9453V40.4746C214.477 38.7995 213.882 36.7409 213.882 34.2988C213.882 31.8366 214.477 29.7074 215.668 27.9111H222.964C224.397 27.9111 225.618 28.446 226.627 29.5156C225.739 30.3431 225.295 31.0293 225.295 31.5742C225.295 32.1999 225.648 32.5127 226.354 32.5127C227.243 30.9788 228.464 29.7578 230.018 28.8496C231.834 27.8203 233.963 27.3057 236.405 27.3057C238.262 27.3057 239.887 27.6992 241.279 28.4863C242.692 29.2734 243.742 30.1816 244.428 31.2109C245.376 29.9193 246.607 28.9505 248.121 28.3047C249.655 27.6387 251.249 27.3057 252.904 27.3057C256.557 27.3057 259.393 28.4359 261.411 30.6963C263.389 32.9567 264.378 36.0547 264.378 39.9902L264.257 46.0146ZM316.69 46.0146C316.69 47.488 316.852 48.6888 317.175 49.6172C317.498 50.5456 318.063 51.262 318.87 51.7666C318.89 51.8675 318.9 52.0391 318.9 52.2812V52.7354C318.9 55.5003 318.093 57.6598 316.479 59.2139C314.864 60.7679 312.775 61.5449 310.212 61.5449C307.669 61.5449 305.62 60.8486 304.066 59.4561C302.23 57.8415 301.312 55.3691 301.312 52.0391V42.4727C301.312 41.1204 300.868 40.4443 299.979 40.4443C299.636 40.4443 299.364 40.5251 299.162 40.6865L299.707 45.1973V52.0391C299.707 54.7839 300.161 56.8626 301.069 58.2754C300.101 59.3047 298.89 60.112 297.437 60.6973C296.004 61.2624 294.54 61.5449 293.047 61.5449C290.625 61.5449 288.748 60.9596 287.416 59.7891C285.801 58.3763 284.994 56.1462 284.994 53.0986V42.4727C284.994 41.1204 284.55 40.4443 283.662 40.4443C283.319 40.4443 283.047 40.5251 282.845 40.6865L283.39 45.1973V53.2197C283.39 55.4801 283.692 57.2259 284.298 58.457C282.32 60.4954 279.545 61.5146 275.973 61.5146C273.854 61.5146 272.067 60.9798 270.614 59.9102C268.939 58.679 268.102 57.0241 268.102 54.9453V40.4746C266.911 38.7995 266.315 36.7409 266.315 34.2988C266.315 31.8366 266.911 29.7074 268.102 27.9111H275.397C276.83 27.9111 278.051 28.446 279.061 29.5156C278.173 30.3431 277.729 31.0293 277.729 31.5742C277.729 32.1999 278.082 32.5127 278.788 32.5127C279.676 30.9788 280.897 29.7578 282.451 28.8496C284.268 27.8203 286.397 27.3057 288.839 27.3057C290.696 27.3057 292.32 27.6992 293.713 28.4863C295.126 29.2734 296.175 30.1816 296.861 31.2109C297.81 29.9193 299.041 28.9505 300.555 28.3047C302.089 27.6387 303.683 27.3057 305.338 27.3057C308.991 27.3057 311.826 28.4359 313.845 30.6963C315.823 32.9567 316.812 36.0547 316.812 39.9902L316.69 46.0146ZM337.458 61.9385C331.868 61.9385 327.458 60.3844 324.229 57.2764C320.919 54.1481 319.264 49.8695 319.264 44.4404C319.264 38.9912 320.969 34.6722 324.38 31.4834C327.528 28.5166 331.514 27.0332 336.338 27.0332C341.161 27.0332 345.026 28.3652 347.933 31.0293C350.859 33.6732 352.322 36.9326 352.322 40.8076C352.322 44.2588 351.121 46.8623 348.72 48.6182C346.5 50.2731 343.472 51.1006 339.638 51.1006C336.772 51.1006 334.35 50.5052 332.372 49.3145C332.211 49.4355 332.13 49.6576 332.13 49.9805C332.13 50.5859 332.927 51.141 334.521 51.6455C336.116 52.1904 337.922 52.4629 339.94 52.4629C341.979 52.4629 343.826 52.2106 345.48 51.7061C347.156 51.1813 348.498 50.5658 349.507 49.8594C349.991 50.2832 350.375 51.0703 350.657 52.2207C350.96 53.3509 351.111 54.3903 351.111 55.3389C351.111 56.2673 351.021 57.0947 350.839 57.8213C349.265 59.1533 347.65 60.1019 345.995 60.667C343.654 61.5146 340.808 61.9385 337.458 61.9385ZM337.064 41.4434C338.074 41.4434 338.578 41.0599 338.578 40.293C338.578 39.5664 338.043 39.2031 336.974 39.2031C335.904 39.2031 335.288 39.7783 335.127 40.9287C335.692 41.2718 336.338 41.4434 337.064 41.4434ZM362.767 61.3936C360.365 61.3936 358.448 60.9596 357.015 60.0918C355.42 59.1836 354.623 57.8415 354.623 56.0654V40.4746C353.432 38.7995 352.837 36.7409 352.837 34.2988C352.837 31.8366 353.432 29.7074 354.623 27.9111H359.255C361.636 27.9111 363.342 28.6781 364.371 30.2119C363.867 30.777 363.423 31.4935 363.039 32.3613C362.656 33.2292 362.464 33.8548 362.464 34.2383C362.464 34.6016 362.555 34.874 362.736 35.0557C362.938 35.2373 363.221 35.3281 363.584 35.3281C364.29 32.5228 365.632 30.4642 367.61 29.1523C369.245 28.0423 371.263 27.4873 373.665 27.4873C376.652 27.4873 378.993 28.123 380.688 29.3945C381.294 31.0091 381.597 32.987 381.597 35.3281C381.597 37.6491 381.132 39.7581 380.204 41.6553C379.518 42.0186 378.569 42.3314 377.358 42.5938C376.147 42.8359 374.926 42.957 373.695 42.957C372.464 42.957 371.354 42.8763 370.365 42.7148C369.396 42.5332 368.69 42.3717 368.246 42.2305C368.085 42.3919 368.004 42.624 368.004 42.9268C368.004 43.2295 368.196 43.4616 368.579 43.623C368.983 43.7643 369.649 43.9258 370.577 44.1074V59.3047C368.377 60.6973 365.774 61.3936 362.767 61.3936Z" fill="#7866CC"/>
<circle cx="47.5" cy="59.5" r="0.5" fill="white"/>
<path d="M109 58C110.667 55.6667 112.3 52.1 113.5 48.5" stroke="white" stroke-linecap="round"/>
<path d="M109 58C110.667 55.6667 112.3 52.1 113.5 48.5" stroke="white" stroke-linecap="round"/>
<path d="M123.5 67C125.5 69 131.3 72.3 138.5 69.5" stroke="white" stroke-linecap="round"/>
<path d="M168 34.641C168.833 33.141 171.7 30.341 176.5 31.141" stroke="white" stroke-linecap="round"/>
<path d="M183.5 52C184 54.5 186.8 59.5 194 59.5" stroke="white" stroke-linecap="round"/>
<path d="M248 32.2673C250.833 30.7673 257.4 29.3673 261 35.7673" stroke="white" stroke-linecap="round"/>
<path d="M301 32.2673C303.833 30.7673 310.4 29.3673 314 35.7673" stroke="white" stroke-linecap="round"/>
<path d="M328 57C330.667 59 338.3 62 347.5 58" stroke="white" stroke-linecap="round"/>
<path d="M366.5 35.5C367 33.3333 370 29.4 378 31" stroke="white" stroke-linecap="round"/>
<path d="M39 55C39.9722 56.2121 42.7333 58.7091 46 59" stroke="white" stroke-linecap="round"/>
<path d="M10.5 25C13.5 24.5 20.3 23.8 23.5 25" stroke="white" stroke-linecap="round"/>
<circle cx="25.5" cy="25.5" r="0.5" fill="white"/>
</svg>
